<?xml version="1.0" encoding="UTF-8"?>
<svg width="512" height="512" viewBox="0 0 24 24" fill="none" xmlns="http://www.w3.org/2000/svg">
  <rect width="24" height="24" rx="12" fill="#3B82F6"/>
  <path d="M10 12.5a1.5 1.5 0 1 1-3 0 1.5 1.5 0 0 1 3 0Z" fill="white"/>
  <path d="M17 12.5a1.5 1.5 0 1 1-3 0 1.5 1.5 0 0 1 3 0Z" fill="white"/>
  <path d="M10.5 16a1.5 1.5 0 1 1-3 0 1.5 1.5 0 0 1 3 0Z" fill="white"/>
  <path d="M16.5 16a1.5 1.5 0 1 1-3 0 1.5 1.5 0 0 1 3 0Z" fill="white"/>
  <path d="M13.5 8a1.5 1.5 0 1 1-3 0 1.5 1.5 0 0 1 3 0Z" fill="white"/>
</svg>